# xmcd
#
# Track frame offsets:
#	150
#	15407
#	34612
#	55495
#	75235
#	96075
#	114322
#	132335
#	148112
#	166742
#	189022
#
# Disc length: 2810 seconds
#
# Revision: 8
# Processed by: cddbd v1.5.2PL0 Copyright (c) Steve Scherf et al.
# Submitted via: EasyCDDAExtractor 15.3.0.1
#
DISCID=7c0af80b
DTITLE=Gloria Estefan - Exitos De Gloria Estefan
DYEAR=1990
DGENRE=Latin
TTITLE0=Renacer
TTITLE1=Conga
TTITLE2=No Sera Facil
TTITLE3=Dr. Beat
TTITLE4=Regresa A Mi
TTITLE5=No Te Olvidare
TTITLE6=Dingui-Li Bangui
TTITLE7=No Me Vuelvo A Enamorar
TTITLE8=Si Voy A Perderte
TTITLE9=Oye Mi Canto
TTITLE10=Here We Are (Portuguese Version)
EXTD=YEAR: 1990
EXTT0=
EXTT1=
EXTT2=
EXTT3=
EXTT4=
EXTT5=
EXTT6=
EXTT7=
EXTT8=
EXTT9=
EXTT10=Here We Are (Versi n Portuguesa)
PLAYORDER=
